<mxfile host="app.diagrams.net" modified="2024-02-28T20:21:52.354Z" agent="Mozilla/5.0 (Windows NT 10.0; Win64; x64) AppleWebKit/537.36 (KHTML, like Gecko) Chrome/122.0.0.0 Safari/537.36 Edg/122.0.0.0" version="23.1.6" etag="i3bYi4gAV-lszchANp0V" type="github">
  <diagram name="Страница — 1" id="mQ9b6QIwlGxsz00VcLrR">
    <mxGraphModel>
      <root>
        <mxCell id="0" />
        <mxCell id="1" parent="0" />
      </root>
    </mxGraphModel>
  </diagram>
</mxfile>
